<?xml version="1.0" encoding="UTF-8"?>
<svg id="Capa_1" data-name="Capa 1" xmlns="http://www.w3.org/2000/svg" viewBox="0 0 327.69 318.34">
  <defs>
    <style>
      .cls-1 {
        fill: #bfa388;
      }
    </style>
  </defs>
  <path class="cls-1" d="M167.32,169.82c27.4-4.26,50.7,11.66,48.96,40.9-.41,6.97-3.36,11.61-7.68,15.06,2.9-1.49,5.24-1.23,10.99,3.08,12.66,9.49,18.62,27.54,26,41,12.58,22.93,35.43,56.05,65.97,46.92,1.3-.39,2.5-.82,3.62-1.29,3.19-1.57,6.14-3.55,8.53-5.91,5.42-6.49,4.62-15.74,1.66-26.51-7.85-28.6-38.18-52.88-42-81-.32-2.35-.44-4.43-.4-6.28,0-.01,0-.03,0-.04-.13-8.19,3.56-6.16-3.39-14.91-8.9-11.19-20.66-18.92-29.32-31.68-12.14-17.87-19.56-49.83-12.94-70.57,8.07-25.31,32.15-48.91-.33-71.15-33.62-23.02-69.47,11.6-71.89,45.92-1.14,16.09,6.91,27.74.16,44.16-7.48,18.19-26.09,19.76-43.66,18.31-15.1-1.25-27.79-10.99-41.99.04-18.09,14.05-9.47,31.26-11.52,49.48,0,.07-.03.14-.03.2-3.48,32.71-37.3,28.41-58.23,52.61-17.44,23.36-11.76,45.36,18.27,51.14,23.59,4.55,46.08-3.96,68.07-10.83,0-.01,0-.02,0-.03-1.69-37.13,34.99-83.01,71.18-88.64Z"/>
</svg>