<?xml version="1.0" encoding="UTF-8"?>
<svg id="Capa_1" data-name="Capa 1" xmlns="http://www.w3.org/2000/svg" viewBox="0 0 463.14 421.08">
  <defs>
    <style>
      .cls-1 {
        fill: #afae94;
      }
    </style>
  </defs>
  <path class="cls-1" d="M263.61,283.4c-1.86-2.05-11.36-10.23-13.6-10.9-9.34-2.77-24.81,1.36-33.42,5.67-49.09,24.56-48.9,139.28-116.83,125.58-32.02-6.46-52.71-56.18-66.62-82.38-12.48-23.49-21.84-30.91-17.9-60.55,3.55-26.72,19.92-47.39,18.72-74.26C32.01,143.39,4.37,112.07.4,74.11c-.54-5.15-.64-12.5.39-17.81.7-4.86-.84-6.45.4-7.62,1.56-1.47,7-2.08,9.26-2.46,11.61-1.95,22.54-6.23,33.45,1.39,17.52,12.24,21.75,59.31,32.57,80.43,4.44,8.67,11.71,15.44,16.3,23.7,28.23,50.77-19.78,72.97-20.85,118.76-.76,32.55,22.71,46.57,48.51,24.52,26.17-22.36,25.68-69.17,62.52-78.48,49.6-12.53,104.89,18.16,150.92-16.08,17.05-12.68,23.42-27.58,11.62-47.45-7.77-13.08-22.35-8.66-34.72-6.65-34.47,5.59-66.89,21.34-102.19,16.56-61.3-8.28-79.35-53.34-87.35-108.65-2.75-19.02-1.29-44.54,24.22-42.21,35.48,3.23,38.15,57.45,60.98,77.01,26.8,22.95,72.35,14.15,95.59-10.57C320.23,53.67,340.09-3.12,385.37.13c16.19,2.21,24.89,22.74,19.08,36.9-10.29,25.08-46.8,35.13-23.72,70.73,8.51,13.13,13.61,15.67,26.55,22.45s15.01,25.06,24.14,34.86c6.5,6.98,16.28,9.45,22.37,17.63,11.96,16.09,15.52,46.42-8.03,53.63-29.71,9.1-60.01-2.38-87.83,20.17-16.39,13.28-31.01,51.27-32.02,71.99-.52,10.76,4.13,34.47-1.31,42.69-4.49,6.79-27.91,11.57-36.6,19.4-5.36,4.84-7.95,13.38-13.03,18.97-31.67,34.8-98.71-16.82-59.57-54.57,13.43-12.95,34.36-15.63,46.52-30.48,10.38-12.68,13.34-28.27,1.67-41.13Z"/>
</svg>