<?xml version="1.0" encoding="UTF-8"?>
<svg id="Capa_1" data-name="Capa 1" xmlns="http://www.w3.org/2000/svg" viewBox="0 0 343.6 445.33">
  <defs>
    <style>
      .cls-1 {
        fill: #91766d;
      }
    </style>
  </defs>
  <path class="cls-1" d="M333.48,128.15c.21,11.46,10.23,27.84,10.12,38.33-.14,13.68-17.54,27.62-33.98,28.83-29.14,3.19-52.04-13.66-83.27-1.88-29.57,11.15-27.36,52.63.81,65.57,11.88,5.09,16.44,2.4,15.37,13.24-1.23,10.72-.95,19.31,1.87,30.29,9.2,35.87,42.07,82.03,28.42,121.99-6.33,18.52-33.36,27.72-48.17,14.76-37.51-32.8-23.16-110.81-55.02-145.98-17.73-19.57-43.97,7.71-50.99,25.03-9.03,22.26,1.77,46.56-.53,69.47-1.08,10.82-6.45,14.8-16.23,17.77-35.09,10.67-65.71-16.24-63.79-51.8,1.51-28.04,42.05-96.88,63.51-115.49,17.64-15.3,56.87-15.33,61.29-43.71,3.05-19.63-2.63-30.95-21.54-36.98-32.44-10.34-68.43-6.44-101.21-16.79C17.81,133.76,1.29,109.99.08,86.85c-1.63-31.07,22.86-42.7,50.48-34.48,13.9,4.13,17.03,14.58,26.55,23.45,31.7,29.57,77.06,30.35,109.54,1.51C212.58,54.31,217.18,9.47,260.07.76c15.05-3.06,43.67,2.9,45.34,22.62,3.88,45.81-35.08,37.67-58.26,64.46-17.44,23.36-11.76,45.36,18.27,51.14,23.59,4.55,46.08-3.96,68.07-10.83Z"/>
</svg>