<?xml version="1.0" encoding="UTF-8"?>
<svg id="Capa_1" data-name="Capa 1" xmlns="http://www.w3.org/2000/svg" viewBox="0 0 388.24 482.82">
  <defs>
    <style>
      .cls-1 {
        fill: #a5745e;
      }
    </style>
  </defs>
  <path class="cls-1" d="M37.9,225.81c1.56-1.47,7-2.08,9.26-2.46,11.61-1.95,22.54-6.23,33.45,1.39,17.52,12.24,21.75,59.31,32.57,80.43,4.44,8.67,11.71,15.44,16.3,23.7,28.23,50.77-19.78,72.97-20.85,118.76-.69,29.45,18.45,43.72,41.22,29.85,29.27-18.43,29.18-58.3,54.54-76.54,4.29-3.23,9.29-5.75,15.28-7.27,46.92-11.85,98.94,14.97,143.39-11.1,3.28-1.97,6.49-4.23,9.64-6.83,1.8-1.49,3.56-2.96,5.24-4.45,11.27-11.3,14.17-24.48,4.27-41.15-7.77-13.08-22.35-8.66-34.72-6.65-34.47,5.59-66.89,21.34-102.19,16.56-48.06-6.5-69.53-35.6-80.42-74.52-.39-1.3-.77-2.6-1.11-3.88-1.83-6.87-3.66-15.2-4.8-23.69-.35-2.17-.69-4.36-1.01-6.56-2.75-19.02-1.29-44.54,24.22-42.21,10.25.93,17.76,6.13,23.82,13.52,12.1,13.62,17.65,34.63,26.12,49.44.04.08.09.15.13.23,5.61,9.72,13.35,16.67,22.22,21.19,26.96,13.02,64.06,3.58,84.28-17.93,5.66-7.72,11.48-18.53,18.18-29.67-6.77-17.56-66.46-21.66-82.72-34.75-12.9-10.38-19.7-27.79-31.01-39.99-12.75-13.76-38.24-23.75-45.25-40.75-3.31-8.02-4.79-24.62.88-31.59,13.98-17.16,48.27-12.14,49.76-37.29,1.74-29.25-21.56-45.16-48.96-40.9-37.89,5.89-76.32,55.9-70.69,93.79,2.86,19.28,19.41,31.71,1.24,49.75-31.01,30.79-73.18-7.04-111.52,10.48-27.47,12.56-23.39,54.46,4.23,65.82,5.63,2.32,16.79,4.34,14.61,12.91.7-4.86-.84-6.45.4-7.62Z"/>
</svg>