<?xml version="1.0" encoding="UTF-8"?>
<svg id="Capa_1" data-name="Capa 1" xmlns="http://www.w3.org/2000/svg" viewBox="0 0 322.76 395.29">
  <defs>
    <style>
      .cls-1 {
        fill: #868567;
      }
    </style>
  </defs>
  <path class="cls-1" d="M239.65.36c28.65-3.75,48.87,22.17,35.1,49.09-14.68,28.71-51.31,37.4-66.29,58.71-17.58,25.01,8.61,39,16.18,57.7,4.34,10.74,2.12,21.18,12.24,29.76,21.67,18.41,45.29,6.51,66.33,19.67,34.51,21.59,12.37,68.35,14.71,102.29,1.31,19.01,11.4,35.53-3.5,52.52-26.46,30.17-70.17,37.42-92.33-1.68-15.84-27.94,5.25-40.44,17.78-60.25,14.56-23.01,1.14-52.48-26.23-42.85-22.7,7.99-43.02,35.61-50.22,47.03-3.27-6.12-10.46-9.91-12.38-10.48-3.61-1.07-19.6-6.87-24.75-8.38-15.91-4.69-32.83-5.21-45.59-15.88-13.18-11.02-21.36-28.34-33.43-40.54C27.82,217.44-4.59,209.26.54,173.88c2.27-15.63,26.79-21.25,39.33-26.3,8.81-4.67,8.99-8.58,18.49-1.46,12.66,9.49,18.62,27.54,26,41,12.58,22.93,35.43,56.05,65.97,46.92,17.87-5.34,18.16-17.88,13.81-33.71-7.85-28.6-38.18-52.88-42-81-2.65-19.52,7.93-20.21,20.06-29.43,18.01-13.69,41.05-37.17,57.21-53.79C211.09,24.11,222.77,2.57,239.65.36Z"/>
</svg>