<?xml version="1.0" encoding="UTF-8"?>
<svg id="Capa_1" data-name="Capa 1" xmlns="http://www.w3.org/2000/svg" viewBox="0 0 279.23 318.16">
  <defs>
    <style>
      .cls-1 {
        fill: #6b6859;
      }
    </style>
  </defs>
  <path class="cls-1" d="M129.62.46c20.73-2.82,40.79,7.46,48.02,27.47,17.51,48.45-34.48,47.95-55.19,75.36-7.22,9.56-7.69,14.07,1.94,21.89,32.89,26.69,75.6-12.16,106.23-22.72,33.85-11.66,40.64,7.26,45.78,36.71,2.81,16.06,4.68,28.67-12.27,35.8-32.98,13.86-95.89,2.71-115.78,40.22-4.9,9.24-7.69,32.34,5.46,35.58,27.33,6.74,77.21-23.13,96.86,10.14,7.59,12.85,6.81,29.36-.36,42.24-14.96,26.91-45.6,9.8-68.95,8.07-22.45-1.66-45.31,3.49-67.01-4.99-6-2.34-14.55-6.14-16.23-12.77-2.43-9.61-4.84-27.82-5.24-37.76-1.18-29.22,17.51-68.96-8.49-91.51-15.72-13.64-27.48-10.06-45.92-12.08-11.6-1.27-29.52-10.95-33.64-22.36C3.6,126.34.39,114.7.02,111.44c-.73-6.35,18.14-8.26,22.86-9.73,29.74-9.22,42.16-24.26,58.4-49.6C93.22,33.48,104.25,3.91,129.62.46Z"/>
  <path class="cls-1" d="M130.62.46c20.73-2.82,40.79,7.46,48.02,27.47,17.51,48.45-34.48,47.95-55.19,75.36-7.22,9.56-7.69,14.07,1.94,21.89,32.89,26.69,75.6-12.16,106.23-22.72,33.85-11.66,40.64,7.26,45.78,36.71,2.81,16.06,4.68,28.67-12.27,35.8-32.98,13.86-95.89,2.71-115.78,40.22-4.9,9.24-7.69,32.34,5.46,35.58,27.33,6.74,77.21-23.13,96.86,10.14,7.59,12.85,6.81,29.36-.36,42.24-14.96,26.91-45.6,9.8-68.95,8.07-22.45-1.66-45.31,3.49-67.01-4.99-6-2.34-14.55-6.14-16.23-12.77-2.43-9.61-4.84-27.82-5.24-37.76-1.18-29.22,17.51-68.96-8.49-91.51-15.72-13.64-27.48-10.06-45.92-12.08-11.6-1.27-29.52-10.95-33.64-22.36-1.22-3.39-4.43-15.04-4.81-18.3-.73-6.35,18.14-8.26,22.86-9.73,29.74-9.22,42.16-24.26,58.4-49.6C94.22,33.48,105.25,3.91,130.62.46Z"/>
</svg>